HIERARCHY
ROOT Hips
{
	OFFSET 0.000000 88.474243 0.000000
	CHANNELS 6 Xposition Yposition Zposition Zrotation Yrotation Xrotation 
	JOINT Hips_Spine
	{
		OFFSET 0.000000 0.000000 0.000000
		CHANNELS 3 Zrotation Yrotation Xrotation
		JOINT Spine
		{
			OFFSET 0.005100 8.711998 -0.691000
			CHANNELS 3 Zrotation Yrotation Xrotation
			JOINT Spine1
			{
				OFFSET -0.009200 8.660301 -1.275000
				CHANNELS 3 Zrotation Yrotation Xrotation
				JOINT Spine2
				{
					OFFSET 0.006300 9.852501 -1.857000
					CHANNELS 3 Zrotation Yrotation Xrotation
					JOINT Spine2_Neck
					{
						OFFSET 0.000000 0.000000 0.000000
						CHANNELS 3 Zrotation Yrotation Xrotation
						JOINT Neck
						{
							OFFSET 0.016300 11.420799 -0.263300
							CHANNELS 3 Zrotation Yrotation Xrotation
							End Site #name: Head
							{
								OFFSET -0.019200 9.262405 2.362500
							}
						}
					}
					JOINT Spine2_LeftShoulder
					{
						OFFSET 0.000000 0.000000 0.000000
						CHANNELS 3 Zrotation Yrotation Xrotation
						JOINT LeftShoulder
						{
							OFFSET 5.616900 6.732201 -0.345700
							CHANNELS 3 Zrotation Yrotation Xrotation
							JOINT LeftArm
							{
								OFFSET 10.664888 -0.183372 -2.440700
								CHANNELS 3 Zrotation Yrotation Xrotation
								JOINT LeftForeArm
								{
									OFFSET 27.459126 0.000000 0.000000
									CHANNELS 3 Zrotation Yrotation Xrotation
									End Site #name: LeftHand
									{
										OFFSET 21.306858 0.000000 0.000000
									}
								}
							}
						}
					}
					JOINT Spine2_RightShoulder
					{
						OFFSET 0.000000 0.000000 0.000000
						CHANNELS 3 Zrotation Yrotation Xrotation
						JOINT RightShoulder
						{
							OFFSET -5.580300 6.737503 -0.344400
							CHANNELS 3 Zrotation Yrotation Xrotation
							JOINT RightArm
							{
								OFFSET -10.679335 -0.188484 -2.383900
								CHANNELS 3 Zrotation Yrotation Xrotation
								JOINT RightForeArm
								{
									OFFSET -27.503529 0.000000 0.000000
									CHANNELS 3 Zrotation Yrotation Xrotation
									End Site #name: RightHand
									{
										OFFSET -21.306808 0.000000 0.000000
									}
								}
							}
						}
					}
				}
			}
		}
	}
	JOINT Hips_LeftUpLeg
	{
		OFFSET 0.000000 0.000000 0.000000
		CHANNELS 3 Zrotation Yrotation Xrotation
		JOINT LeftUpLeg
		{
			OFFSET 6.857700 -6.739601 0.312100
			CHANNELS 3 Zrotation Yrotation Xrotation
			JOINT LeftLeg
			{
				OFFSET -0.367590 -34.731552 -4.572400
				CHANNELS 3 Zrotation Yrotation Xrotation
				End Site #name: LeftFoot
				{
					OFFSET 0.367590 -34.656704 -6.067400
				}
			}
		}
	}
	JOINT Hips_RightUpLeg
	{
		OFFSET 0.000000 0.000000 0.000000
		CHANNELS 3 Zrotation Yrotation Xrotation
		JOINT RightUpLeg
		{
			OFFSET -6.876100 -6.733299 0.301000
			CHANNELS 3 Zrotation Yrotation Xrotation
			JOINT RightLeg
			{
				OFFSET 0.347353 -34.795158 -4.515900
				CHANNELS 3 Zrotation Yrotation Xrotation
				End Site #name: RightFoot
				{
					OFFSET -0.347353 -34.589367 -6.070300
				}
			}
		}
	}
}
MOTION
Frames: 16
Frame Time: 0.041667
3.503211 0.337488 -5.208207 174.670214 -34.471958 -178.697047 0.000000 -0.000000 0.000000 -4.588129 0.375950 3.444301 0.268016 -2.104347 1.010694 0.000000 0.000000 0.000000 0.997453 -1.963193 1.599182 3.358406 -30.595823 -3.196026 -0.125558 -1.676181 -0.496947 1.102747 -6.698944 0.610150 -84.511848 -20.264169 11.738774 5.289872 -26.646291 1.309368 0.251894 -2.594965 0.005025 16.519901 14.910239 3.601178 54.821297 14.508698 6.679961 4.868009 50.528800 8.597867 0.000000 0.000000 -0.000000 -2.809346 15.602239 -2.347709 0.905260 -40.568532 -17.708801 0.000000 0.000000 -0.000000 -3.246701 -58.118890 -12.652590 -12.762429 -3.986656 25.308624 
3.593247 0.392384 -5.338442 174.691952 -34.162802 -178.732130 0.000000 -0.000000 0.000000 -4.846387 0.409290 3.602540 0.221953 -1.998894 0.913082 0.000000 0.000000 0.000000 0.936893 -1.924703 1.493189 3.030901 -29.709597 -3.359220 -0.161253 -1.628822 -0.532023 1.092585 -7.191465 0.772861 -84.150318 -20.442798 11.971036 5.156157 -28.054286 1.050309 0.210945 -2.525013 -0.077944 16.218132 14.978912 3.534448 54.805116 14.500594 7.030934 3.674667 50.650121 7.651941 0.000000 0.000000 -0.000000 -2.855616 15.377752 -2.853522 0.671054 -40.289474 -17.019577 0.000000 0.000000 -0.000000 -3.088763 -56.852043 -12.557451 -11.969435 -2.954739 24.685035 
3.688325 0.449267 -5.461585 174.659822 -34.089063 -178.738234 0.000000 -0.000000 0.000000 -5.117426 0.486094 3.768385 0.165670 -1.880540 0.819092 0.000000 0.000000 0.000000 0.867649 -1.872081 1.372247 2.696106 -28.641077 -3.606668 -0.198943 -1.568577 -0.565602 1.097850 -7.541794 0.866696 -83.760065 -20.630754 12.194036 5.044342 -29.704867 0.768586 0.167469 -2.445207 -0.166271 15.899333 15.058769 3.464206 54.803147 14.506233 7.411506 2.428698 50.685156 6.681723 0.000000 0.000000 -0.000000 -2.873803 15.117296 -3.357865 0.398280 -39.979902 -16.282626 0.000000 0.000000 -0.000000 -3.087813 -55.829001 -12.377491 -11.101695 -1.928610 24.027342 
3.788093 0.504922 -5.579734 174.565921 -34.192835 -178.705630 0.000000 -0.000000 0.000000 -5.374094 0.592839 3.941864 0.107744 -1.753981 0.750819 0.000000 0.000000 0.000000 0.798304 -1.813462 1.261296 2.353205 -27.457033 -3.940276 -0.238028 -1.495029 -0.587356 1.121771 -7.752083 0.887298 -83.371945 -20.777608 12.402114 4.967911 -31.569971 0.485968 0.121875 -2.356917 -0.245259 15.578181 15.165500 3.393551 54.804479 14.521753 7.764881 1.196241 50.682378 5.724290 0.000000 0.000000 -0.000000 -2.877328 14.806633 -3.849377 0.094710 -39.663328 -15.528028 0.000000 0.000000 -0.000000 -3.157558 -54.956411 -12.213629 -10.105966 -0.866725 23.462025 
3.892779 0.556855 -5.694808 174.403025 -34.454982 -178.625792 0.000000 -0.000000 0.000000 -5.634057 0.703014 4.144667 0.044512 -1.658674 0.686135 0.000000 0.000000 0.000000 0.724613 -1.753250 1.175410 2.026854 -26.277969 -4.386326 -0.277522 -1.415238 -0.590327 1.141618 -7.934738 0.907304 -82.969814 -20.902169 12.635933 4.994744 -34.589937 0.174203 0.074244 -2.265499 -0.307438 15.271091 15.308078 3.328785 54.798162 14.562306 8.040421 0.004241 50.717499 4.802576 0.000000 0.000000 -0.000000 -2.877145 14.456565 -4.332672 -0.229370 -39.347971 -14.769622 0.000000 0.000000 -0.000000 -3.289686 -54.402890 -12.004569 -9.058537 0.175939 22.983446 
4.003473 0.603606 -5.808057 174.176996 -34.889010 -178.493769 0.000000 -0.000000 0.000000 -5.925422 0.817113 4.393988 -0.022390 -1.560724 0.661007 0.000000 0.000000 0.000000 0.661061 -1.688285 1.132663 1.573812 -25.113971 -4.967141 -0.315784 -1.329918 -0.574532 1.171718 -8.103398 0.926041 -82.579694 -21.017182 12.868388 5.160587 -38.433172 -0.096771 0.026973 -2.169569 -0.348979 14.998777 15.491900 3.271898 54.778176 14.648288 8.219089 -0.391230 50.807371 4.373184 0.000000 0.000000 -0.000000 -2.892161 14.082241 -4.838216 -0.574754 -39.062352 -13.970400 0.000000 0.000000 -0.000000 -3.491870 -54.388013 -11.737081 -8.090479 1.116507 22.587052 
4.120692 0.643439 -5.920524 173.916161 -35.492722 -178.325863 0.000000 -0.000000 0.000000 -6.252743 0.930977 4.703713 -0.091584 -1.462670 0.672425 0.000000 0.000000 0.000000 0.609728 -1.620793 1.119553 1.089475 -23.891449 -5.736707 -0.351078 -1.239523 -0.545436 1.217728 -8.277749 0.943177 -82.199021 -21.151006 13.062516 5.413343 -42.116411 -0.355941 -0.010254 -2.070419 -0.369253 14.733252 15.770643 3.232501 54.739573 14.779657 8.303026 -0.692968 51.023272 4.017570 0.000000 0.000000 -0.000000 -2.922069 13.720368 -5.385135 -0.955062 -38.832239 -13.095589 0.000000 0.000000 -0.000000 -3.727458 -54.806090 -11.446208 -7.118451 2.066418 22.294661 
4.244900 0.678194 -6.031486 173.628339 -36.183377 -178.127766 -0.000000 -0.000000 0.000000 -6.612731 1.022587 4.975408 -0.173154 -1.364151 0.697098 0.000000 0.000000 0.000000 0.557650 -1.560251 1.100606 0.467466 -22.501417 -6.677634 -0.385420 -1.145812 -0.515588 1.275874 -8.457713 0.962365 -81.804466 -21.332496 13.274036 5.786146 -45.745361 -0.625963 -0.045938 -1.979807 -0.394414 14.476658 16.144763 3.204892 54.674877 14.957823 8.222863 -0.957402 51.465409 3.654128 0.000000 0.000000 -0.000000 -2.963578 13.393337 -5.956983 -1.374323 -38.661175 -12.127195 0.000000 0.000000 -0.000000 -4.007516 -55.646092 -11.117635 -5.930024 3.199837 22.136221 
4.376071 0.708159 -6.139672 173.338959 -36.696875 -177.920199 -0.000000 -0.000000 0.000000 -6.985307 1.086785 5.243844 -0.271198 -1.272175 0.709094 0.000000 0.000000 0.000000 0.495618 -1.510572 1.051573 0.230294 -20.861881 -7.728585 -0.424799 -1.054689 -0.497467 1.344280 -8.663727 0.981947 -81.358172 -21.466469 13.518002 6.209094 -49.374241 -0.970924 -0.088831 -1.889722 -0.435043 14.250001 16.628378 3.204915 54.580235 15.178094 7.991245 -1.200286 52.253831 3.276835 0.000000 0.000000 -0.000000 -3.025115 13.114053 -6.581413 -1.856941 -38.584401 -10.988260 0.000000 0.000000 -0.000000 -4.237763 -56.813704 -10.780249 -4.686729 4.372701 22.120889 
4.514289 0.733076 -6.244359 173.044767 -37.084648 -177.708986 -0.000000 -0.000000 0.000000 -7.380923 1.073872 5.551708 -0.373060 -1.194197 0.686835 0.000000 0.000000 0.000000 0.431469 -1.468776 0.976734 0.062362 -19.132778 -8.761326 -0.469012 -0.970240 -0.490828 1.398954 -8.857572 1.000298 -80.860757 -21.527619 13.796825 6.742673 -53.222964 -1.412437 -0.136965 -1.805966 -0.494034 14.051130 17.182744 3.214355 54.548172 15.408152 7.894355 -1.453360 53.581149 2.866444 0.000000 0.000000 -0.000000 -3.140445 12.885735 -7.287475 -2.461690 -38.593797 -9.635430 0.000000 -0.000000 -0.000000 -4.371172 -58.150342 -10.486255 -4.538915 4.987277 22.136576 
4.660368 0.754515 -6.345814 172.771321 -37.582722 -177.499250 -0.000000 -0.000000 0.000000 -7.795248 0.997699 5.864516 -0.468920 -1.163033 0.667987 0.000000 0.000000 0.000000 0.371280 -1.444807 0.899130 -0.009170 -17.386072 -9.777065 -0.517316 -0.903687 -0.484930 1.455264 -9.039964 1.012616 -80.352521 -21.553730 14.062655 7.334629 -56.904172 -1.981470 -0.181584 -1.735146 -0.546116 13.860528 17.798829 3.222734 54.536360 15.798420 7.692599 -1.773912 55.538061 2.365514 0.000000 0.000000 -0.000000 -3.269311 12.785264 -7.991538 -3.241204 -38.605378 -8.120152 0.000000 -0.000000 -0.000000 -4.499884 -59.531501 -10.170546 -4.740383 5.401681 22.189439 
4.810973 0.773101 -6.443488 172.546370 -38.232441 -177.302262 -0.000000 -0.000000 0.000000 -8.259810 0.902640 6.143491 -0.553180 -1.149829 0.663804 0.000000 0.000000 0.000000 0.310181 -1.432374 0.825804 -0.095277 -15.665267 -10.761641 -0.565835 -0.889851 -0.476732 1.504295 -9.205881 1.027444 -79.889252 -21.569475 14.291764 7.970071 -60.149517 -2.628053 -0.217321 -1.679322 -0.591324 13.682013 18.369510 3.320663 54.515619 16.137180 7.532027 -2.254937 57.906742 1.779480 0.000000 0.000000 -0.000000 -3.418477 12.750035 -8.609938 -4.139938 -38.651414 -6.511890 0.000000 0.000000 -0.000000 -4.676543 -60.865823 -9.817307 -4.984043 5.713055 22.268345 
4.970294 0.793477 -6.538161 172.323241 -38.980062 -177.126328 -0.000000 -0.000000 0.000000 -8.785372 0.790846 6.377741 -0.642561 -1.150059 0.675028 0.000000 0.000000 0.000000 0.245344 -1.428235 0.750090 -0.251911 -14.072618 -11.664179 -0.612701 -0.884536 -0.479195 1.527944 -9.323567 1.042131 -79.413433 -21.665430 14.391156 8.591099 -62.618655 -3.232510 -0.259081 -1.640613 -0.644013 13.518732 18.961380 3.378321 54.521778 16.332255 7.438359 -2.737590 60.544045 1.272016 0.000000 0.000000 -0.000000 -3.562766 12.755260 -9.022356 -5.015621 -38.834514 -5.060141 0.000000 0.000000 -0.000000 -4.887395 -61.983867 -9.505840 -5.236731 6.004807 22.364934 
5.138928 0.818640 -6.631698 172.090989 -39.810707 -176.976882 -0.000000 -0.000000 0.000000 -9.360395 0.667365 6.590164 -0.744713 -1.156841 0.667915 0.000000 0.000000 0.000000 0.174107 -1.430798 0.689223 -0.460269 -12.600883 -12.403025 -0.667318 -0.885037 -0.490299 1.522345 -9.369169 1.053884 -78.945620 -21.782104 14.397452 9.162557 -64.543264 -3.779432 -0.319163 -1.611240 -0.701628 13.402377 19.503865 3.385193 54.570468 16.442513 7.380226 -3.209612 63.317105 0.818110 0.000000 0.000000 -0.000000 -3.699016 12.818949 -9.228887 -5.765158 -39.032784 -3.859709 0.000000 0.000000 -0.000000 -5.093301 -62.727754 -9.270283 -5.478097 6.147945 22.390148 
5.317847 0.857652 -6.726610 171.817022 -40.728592 -176.854413 -0.000000 -0.000000 0.000000 -9.884674 0.631615 6.752846 -0.852250 -1.181855 0.649662 0.000000 0.000000 0.000000 0.080089 -1.433519 0.659174 -0.648642 -11.329083 -12.924353 -0.728497 -0.891672 -0.507533 1.484431 -9.336854 1.056288 -78.469796 -21.952591 14.339817 9.655782 -65.930872 -4.229258 -0.401576 -1.601954 -0.769281 13.310231 19.992632 3.297261 54.672284 16.468247 7.372471 -3.860358 66.306137 0.195369 0.000000 0.000000 -0.000000 -3.823913 12.902969 -9.256672 -6.368581 -39.266768 -2.964555 0.000000 0.000000 -0.000000 -5.084525 -62.983465 -9.318152 -5.676039 6.191779 22.407189 
5.509397 0.933189 -6.823665 171.516326 -41.502176 -176.775827 -0.000000 -0.000000 0.000000 -10.351545 0.570903 6.884101 -0.956185 -1.231759 0.646355 0.000000 0.000000 0.000000 -0.023235 -1.448392 0.656778 -0.747982 -9.643410 -13.688698 -0.791311 -0.910374 -0.520175 1.421214 -9.228047 1.050385 -77.957236 -22.172838 14.253287 10.023210 -66.713271 -4.516231 -0.495729 -1.620368 -0.832731 13.254553 20.452599 3.112332 54.813390 16.574325 7.310906 -4.655002 69.261590 -0.570666 0.000000 0.000000 -0.000000 -3.947689 13.016922 -9.109829 -6.943450 -39.726475 -2.310742 0.000000 0.000000 -0.000000 -4.565541 -62.801945 -9.967723 -5.767253 6.078642 22.662657 
